<svg xmlns="http://www.w3.org/2000/svg"  viewBox="0 0 50 50" width="50px" height="50px"><path d="M 7.7070312 6.2929688 L 6.2929688 7.7070312 L 23.585938 25 L 6.2929688 42.292969 L 7.7070312 43.707031 L 25 26.414062 L 32.171875 33.585938 L 33.585938 32.171875 L 26.414062 25 L 43.707031 7.7070312 L 42.292969 6.2929688 L 25 23.585938 L 7.7070312 6.2929688 z M 37.980469 30.990234 A 1.0001 1.0001 0 0 0 37.292969 31.292969 L 32.380859 36.205078 A 1.0001 1.0001 0 0 0 32.376953 37.792969 A 1.0001 1.0001 0 0 0 32.382812 37.796875 L 37.292969 42.707031 A 1.0001 1.0001 0 1 0 38.707031 41.292969 L 35.414062 38 L 43 38 C 45.773666 38 48 40.226334 48 43 C 48 45.773666 45.773666 48 43 48 L 34 48 A 1.0001 1.0001 0 1 0 34 50 L 43 50 C 46.71951 50 49.714334 47.049648 49.923828 43.380859 A 1.0001 1.0001 0 0 0 50 43 C 50 39.145666 46.854334 36 43 36 L 35.414062 36 L 38.707031 32.707031 A 1.0001 1.0001 0 0 0 37.980469 30.990234 z"/></svg>